<svg id="POTITE_GRILLE" data-name="POTITE GRILLE" xmlns="http://www.w3.org/2000/svg" xmlns:xlink="http://www.w3.org/1999/xlink" viewBox="0 0 1920 1080"><defs><style>.cls-1,.cls-3,.cls-6{fill:none;}.cls-2{clip-path:url(#clip-path);}.cls-3{stroke:#fff;}.cls-3,.cls-6{stroke-linecap:round;stroke-linejoin:round;stroke-width:0.25px;}.cls-4{clip-path:url(#clip-path-2);}.cls-5{clip-path:url(#clip-path-3);}.cls-6{stroke:#000;}.cls-7{clip-path:url(#clip-path-4);}.cls-8{clip-path:url(#clip-path-5);}.cls-9{clip-path:url(#clip-path-6);}.cls-10{clip-path:url(#clip-path-7);}.cls-11{clip-path:url(#clip-path-8);}</style><clipPath id="clip-path"><rect class="cls-1" x="-1406.7" y="-1677.25" width="1920" height="1080"/></clipPath><clipPath id="clip-path-2"><rect class="cls-1" width="1920" height="1080"/></clipPath><clipPath id="clip-path-3"><rect class="cls-1" x="-3765.67" y="-1677.25" width="1920" height="1080"/></clipPath><clipPath id="clip-path-4"><rect class="cls-1" x="-3765.67" width="1920" height="1080"/></clipPath><clipPath id="clip-path-5"><rect class="cls-1" x="1071.29" y="-1677.25" width="360" height="640"/></clipPath><clipPath id="clip-path-6"><rect class="cls-1" x="2574.86" width="360" height="640"/></clipPath><clipPath id="clip-path-7"><rect class="cls-1" x="666.25" y="-1677.25" width="360" height="640"/></clipPath><clipPath id="clip-path-8"><rect class="cls-1" x="2036.98" width="360" height="640"/></clipPath></defs><g class="cls-2"><path class="cls-3" d="M6.41-2050.88C-34.5-1817.69-83.86-1664-168.71-1548.46c-84.23,116.53-204,194.91-371.22,300.35-83.22,53.33-177.48,114.4-276.65,197-98.73,82.68-202.37,186.85-294.1,329-91.1,142-170.26,321.78-205.57,550.45-34.57,227.54-25.28,504,77.62,813.08"/><path class="cls-3" d="M14.73-2044.07c-35.2,238.32-74.83,397.78-144.7,518.35-69.48,121.38-169.2,203.87-315.75,306.86-73,50.92-156.67,109.27-247.39,184.68C-783.47-958.48-880.88-865.72-973-739.35c-91.56,126.2-177.81,286-233.07,491.81-54.51,205.18-78,456.39-27,750.94"/><path class="cls-3" d="M22.93-2035.23C-4.78-1793-35.93-1629-91.82-1503.79c-55.78,125.73-136.29,212.55-260,312.93-122.06,101.24-293,215.49-473.51,436.11-88.89,111.08-178.06,250.66-248.13,432.26C-1142.94-141.24-1193.26,82-1189.86,352.17"/><path class="cls-3" d="M31.09-2024.33c-20.4,244.65-43.21,412.51-85.39,541.72-42.28,129.55-103.92,220.45-204.34,318.9C-310.22-1113.23-369-1062.3-437.85-999.92-506.37-937.51-585-863.65-668.27-766.58-751.18-669.49-838.73-549.19-917-393.17-995-237.11-1063.66-45.33-1100.8,195.47"/><path class="cls-3" d="M39.33-2011.4C11-1518.86-14.62-1330.85-166.33-1137.23c-77.31,98.93-188.2,196.45-336.49,363.78C-647.3-604.9-829.2-366.55-960.61,42.58"/><path class="cls-3" d="M169.54-1717.45c109.13,345.86,283.79,595.23,612.17,854.18,165.21,129.51,369.94,260.94,633.18,406.53,264,146,584.31,304.12,998.48,497.68"/><path class="cls-3" d="M184.71-1684.16c118,324.85,305.33,571.69,657.69,837.25C1019.61-714,1239.18-576.74,1521.05-422.75,1803.61-268.27,2146.41-99.2,2587.17,109.58"/><path class="cls-3" d="M200.73-1650c126.48,303.41,325.5,546.34,698.87,817.61C1087.28-696.57,1319.65-553.85,1616.81-392,1914.56-229.75,2275.2-50.38,2734.52,170.82"/><path class="cls-3" d="M217.65-1615.19c134.66,281.73,344.1,519.28,735.42,795.08C1149.64-682,1392.76-534.32,1702.22-365.43,2012.16-196.11,2386.75-7.29,2858.59,223.9"/><path class="cls-3" d="M235.47-1579.71c142.61,260,361,490.64,767.18,769.6,202.79,138.57,455.8,291.66,774.52,466.39,319.3,175.32,704.32,372.27,1184.7,611.93"/><path class="cls-3" d="M-2007.85,61.69c186.6,140.16,288.71,200.73,359.94,209.38,71.17,8.26,110.6-37.66,173.33-120.16,62.33-81.76,151.25-200.84,313-319.14,159.27-118.08,396.74-231,692.95-292.63,292.88-63.94,648.64-77.29,992-45.26,344.92,31,670.21,100.74,940.7,175,272.28,74.92,489.24,152.37,661.64,216.83C2297.55-49.84,2426.43,2.92,2512.53,30"/><path class="cls-3" d="M-1685.19,498.56C-1493.28,635.81-1406.09,697-1368.48,705c37.89,7.3,23.53-41.41,23.41-140.86.13-98.19,19.18-249.74,133.26-415.64,56.54-82,136.69-166.95,243.49-244.2C-861.88-173.09-728.8-242.8-574.69-296.9-269.41-407.59,135.65-452.23,536-428.37c402.35,22,788.06,101.95,1103,189.1C1956.62-151.09,2202.88-59.16,2393.9,16c190.49,75.32,327.88,135.82,418,168.12"/></g><g class="cls-4"><path class="cls-3" d="M1314.19-352c-95,135-231.85,200.12-446.74,239.28C656-70.65,366.47-54.53,45.05,50.58c-157.25,54-317.93,133.39-452.82,258C-542.2,432.68-650.83,602-693.4,826.59c-42.19,221.92-16.94,500.07,117.71,806.72,133.85,305.13,377.1,638.78,752.65,936.55"/><path class="cls-3" d="M1328.76-360.79c-89.76,149.86-217.36,227.5-419.25,278C710.83-29.45,437.86-3.25,131.59,109.05c-149.92,57.5-303.86,139.43-434,265.42-129.7,125.61-235.65,295.29-278.36,519.44-42.3,221.61-20.09,498.64,109.5,804.5,128.91,304.25,365.2,637.33,735.61,933.91"/><path class="cls-3" d="M1342.15-368.19c-84.35,163.9-202.3,253.56-390.5,314.68-185.23,63.79-440.7,99-731.8,215.66C77.22,221.71-70.37,304.32-197.06,429.39c-126.17,124.73-231.45,291.93-277.52,512.9-45.56,218.59-30.81,491.82,88.4,795.69,118.72,302.16,341.9,635,701.8,933.2"/><path class="cls-3" d="M1354.47-374.13C1275.72-197.11,1167.66-96,993.71-25,822.42,48.48,585.23,91.82,309.55,210.41,174.28,270.87,32.92,352.6-91,474.77-214.4,596.67-320.36,759-372.18,974.3c-51.23,213.18-47.4,480.06,56.82,780.58,104,298.7,308.3,631,651.72,933.28"/><path class="cls-3" d="M1365.87-378.5c-73,189.15-171,301.09-330.33,381.23-157,82.41-375.29,133-635.07,251.68-127.7,60.41-262.7,140-384.15,257.69C-104.56,629.55-211.89,785-271.07,992.38c-58.49,205.58-68.12,463.62,17.16,759,85.25,293.53,265.4,624.45,585.56,932.23"/><path class="cls-3" d="M1376.45-381.2c-67,200.25-155,322.25-299.41,410.83C934.55,120.23,735.6,177.41,492.42,294.7,372.62,354.34,244.34,431,125.54,542.82c-118.22,111.73-227,258.7-294.28,456.07-66.56,195.95-91.18,442.68-28,730.78,63.34,286.19,214.43,613.73,503.89,927.46"/><path class="cls-3" d="M1386.35-382.14c-60.72,210.26-138.77,341.52-268.26,437.83C990.24,153.78,811,216.92,585.23,331.83c-111.47,58.36-232.45,131.37-348,236.49-115,105.08-224.58,242.27-300,427.81-74.65,184.49-114.78,417.51-76.06,695.54,39.13,276.21,157.13,597.42,408.32,916"/><path class="cls-3" d="M1395.68-381.23c-54.29,219.11-122.55,358.76-237,462.13C1045.42,185.78,886,254.4,678.69,366.31c-102.62,56.77-215.56,125.82-327,223.61C240.87,687.72,131.55,814.26,48.85,986.4c-81.93,171.44-137,388.49-123.82,653.35,13.8,263.18,95.92,574.16,302,894.81"/><path class="cls-3" d="M1404.56-378.41c-47.68,226.77-106.36,373.9-206,483.67-98.65,111-238.19,184.69-426,293.35-93.21,55-197.27,120-303.28,210.2C363.83,699.05,256.37,814.44,168,972,80.36,1129.11,11.9,1328.26-.08,1576.63c-11.29,246.93,33.9,543.08,189.66,861.1"/><path class="cls-3" d="M1413.11-373.62C1372.2-140.44,1322.84,13.26,1238,128.8c-84.23,116.53-204,194.9-371.22,300.35-83.22,53.32-177.48,114.4-276.66,197C491.39,708.79,387.75,813,296,955.1c-91.1,142-170.26,321.79-205.57,550.46-34.57,227.54-25.28,504,77.62,813.07"/><path class="cls-3" d="M1421.43-366.82c-35.2,238.33-74.83,397.78-144.7,518.36C1207.25,272.91,1107.53,355.4,961,458.39c-73,50.92-156.67,109.27-247.39,184.69-90.36,75.7-187.77,168.46-279.88,294.83-91.56,126.2-177.82,286-233.07,491.8-54.51,205.19-78,456.39-26.95,750.94"/><path class="cls-3" d="M1429.63-358c-27.71,242.17-58.86,406.26-114.75,531.44C1259.1,299.2,1178.59,386,1054.83,486.39c-122.06,101.24-293,215.5-473.51,436.11-88.89,111.09-178.06,250.66-248.13,432.27C263.76,1536,213.44,1759.28,216.84,2029.43"/><path class="cls-3" d="M1437.79-347.08c-20.4,244.65-43.21,412.51-85.39,541.73-42.28,129.54-103.92,220.45-204.34,318.89C1096.48,564,1037.72,615,968.85,677.34c-68.52,62.41-147.16,136.27-230.42,233.33-82.91,97.1-170.46,217.39-248.75,373.42C411.74,1440.14,343,1631.92,305.9,1872.72"/><path class="cls-3" d="M1446-334.14c-28.3,492.54-53.94,680.55-205.65,874.16C1163.06,639,1052.17,736.48,903.88,903.8c-144.48,168.56-326.38,406.91-457.79,816"/><path class="cls-3" d="M1454.41-319.19c-6.41,245.59-13,418.46-28.7,554.1C1409.59,370.56,1384.29,469,1331.46,566c-53.19,97.76-133.94,192.24-254.93,337.08-118.83,146.26-277.9,342.87-437.83,677.5"/><path class="cls-3" d="M1463-302.24c.29,244.11,1.63,418.24-1.45,556.32-3.55,138-11.51,239.9-40.51,337.4-28.92,97.7-78.92,190.52-167,317.57-87.23,128.24-212.49,290.7-373.36,554.91"/><path class="cls-3" d="M1471.94-283.37c6.79,241.43,15.85,416,25,556,8.65,139.84,17.39,245.1,11.94,343.92-4.8,98.67-23.9,191.16-74.59,305.36C1383.43,1036.84,1301,1173.47,1165.22,1377"/><path class="cls-3" d="M1481.24-262.63C1494.36-25,1511,149.23,1531.89,290.69c20.42,141.24,45.19,249.69,62.79,350.55,18.83,100.54,30.34,194,19.92,300.16-11.2,106.4-44.32,225.51-132.77,382.44"/><path class="cls-3" d="M1491-240.09c19.25,232.67,43.2,405.85,75.46,548.31,31.77,142.21,71.85,253.69,111.81,357.25,41.69,103.13,83.07,198.78,114.27,301.36,30.19,102.41,50.2,211.76,25.66,338.16"/><path class="cls-3" d="M1501.23-215.85c25.22,226.75,56.32,398.14,99.43,541.14C1643.3,468,1698,582.39,1759.41,689.18c63.55,106.29,133.65,205.27,206.34,308.11,71.7,102.44,146,208.75,195.42,320.57"/><path class="cls-3" d="M1512-190c31,219.89,69,388.81,122.52,531.92,53,142.86,121.51,259.91,203.44,370.36,84.2,109.86,181.57,213.14,294.24,319.34,111.93,105.78,239.17,214.48,366.11,325.58"/><path class="cls-3" d="M1523.46-162.62c36.58,212.2,81.39,378,144.73,520.79,63,142.56,144.47,262.12,245.71,376.51,103.51,113.69,226.39,222.08,376.46,334,149.67,111.63,326.52,226.75,528.71,347.64"/><path class="cls-3" d="M1535.55-133.85c41.21,204.12,93.52,365.68,166.14,507.8,72.59,141.82,165.24,264,285.49,382.21,120.33,118,268,231.7,452,351,184.29,119.23,404.14,243.46,676.16,380.81"/><path class="cls-3" d="M1548.35-103.77c46.6,195.16,104.87,352.2,186.42,493.21,81.47,140.69,185.78,265,322.55,387.24,136.94,122.08,305.84,241.69,520,369.29,214.8,127.8,473.75,262.62,804.57,419.54"/><path class="cls-3" d="M1561.9-72.52c99.93,366.22,261,616.82,562.53,868.54,151.68,125.74,339.52,251.17,580.39,388,241.57,137.15,534.18,283.86,911.95,459.55"/><path class="cls-3" d="M1576.24-40.19C1685.37,305.67,1860,555,2188.41,814c165.21,129.5,369.94,260.93,633.18,406.52,264,146,584.31,304.13,998.48,497.68"/><path class="cls-3" d="M1591.41-6.91c118,324.86,305.33,571.7,657.68,837.25,177.21,132.92,396.79,270.18,678.66,424.17,282.56,154.47,625.36,323.55,1066.12,532.32"/><path class="cls-3" d="M1607.43,27.21c126.48,303.42,325.5,546.35,698.87,817.62,187.68,135.85,420,278.58,717.21,440.39,297.75,162.29,658.39,341.65,1117.71,562.86"/><path class="cls-3" d="M1624.35,62.07c134.66,281.72,344.1,519.28,735.42,795.07,196.57,138.16,439.69,285.79,749.15,454.69,309.94,169.32,684.53,358.13,1156.37,589.33"/><path class="cls-3" d="M1642.17,97.55c142.61,260,361,490.63,767.18,769.6,202.79,138.56,455.8,291.65,774.52,466.39,319.3,175.31,704.32,372.27,1184.7,611.93"/><path class="cls-3" d="M1245.41-288.58c99.15-16.77,150,8,211.85,93.18,60.8,82.83,132.6,227,241.86,386.94"/><path class="cls-3" d="M1157-229.62c124.32,36.61,209,92.83,298,177.38,88.31,83.73,181.41,196.49,304.07,325.09"/><path class="cls-3" d="M1049.62-186.69c311.47,174,502.52,337.05,777.15,540.5"/><path class="cls-3" d="M920.92-156.84c194.24,133.67,367.86,244.27,526.46,338.46,159.31,94.7,303.76,173.11,455.6,253.53"/><path class="cls-3" d="M770.27-135.43C885.46-47.7,1005.86,31.34,1119.33,99.82c114,68.71,221.14,126.93,322.32,178.14,199.94,100.65,384.4,178.87,547.75,239.93"/><path class="cls-3" d="M596.34-117.85C734.17-8.19,884.08,85,1026.57,163.79c143.25,79,279.16,143.62,406.06,199.56,250.89,108.86,475.78,191.32,653.78,239"/><path class="cls-3" d="M400.25-97.66C562.56,33.88,743.49,137.49,918,223.94c175.34,86.42,344.23,155.64,500.93,216,156.95,60.12,301,110.75,432.16,153.85,130.76,42.62,248.53,77.59,344,95.49"/><path class="cls-3" d="M187.2-65.31C375.42,87.94,586.73,196.81,794.89,286.8c209,89.59,414.8,160.2,606.29,224.46C1593,575,1769,631.1,1924.21,678.85c155.06,47.15,289.12,85.51,393.17,100.72"/><path class="cls-3" d="M-37.56-12.1C177.19,162.73,415.28,270.46,657,358.33,899,445.26,1145,512.43,1376.49,579c231.74,65.63,446.17,128.31,629.1,182.49,183.25,53.55,334.22,97.4,448.14,112.29"/><path class="cls-3" d="M-263.95,73C-22.8,269.09,234.85,368.28,507,446.52c271.66,76.61,559.24,133.13,836.08,199.23,276.81,64.47,537.74,134.65,752.5,196.94,216.1,61.74,384.07,112.8,509.66,129.94"/><path class="cls-3" d="M-475.43,203.3c270.23,215.22,532.2,299,827.81,357.89,147.33,29.07,302.28,51.15,462.94,75,160.33,23.6,326.37,49,488.4,78.92,328.28,59.13,639.47,136.32,891.93,208.47,253.92,71.44,446.73,134,578.73,153.4"/><path class="cls-3" d="M-656.06,387.84c295.79,233.82,549.11,294.51,856.64,323.32C353.26,725.3,518.92,730.75,696.89,741c177.43,9.86,367.18,24.49,555.63,48.44,382.7,46.84,758.91,131.6,1054,215.43,298.41,83.3,510.39,157.48,654.82,182.61"/><path class="cls-3" d="M-783.34,635.06c161,123.9,296.18,195.6,430.05,234.08C-219.71,907.72-86.57,913,64.13,906.6c150.5-6.52,318.85-24.32,508.79-34.37,189.18-10.5,400-13.25,617.6,0a5699.69,5699.69,0,0,1,654.86,80.16c211.83,38.32,410.6,86.75,583.58,134.76,173.47,48.08,320.83,95.21,441.58,133.18,121.27,38.16,216.15,67.21,297.24,84.52"/><path class="cls-3" d="M-834.1,946.81C-495,1212.28-313.7,1216.88-40.76,1155.36,94.12,1125,252.87,1077.2,447,1039.23c193-38.49,421.49-67.13,669.16-71,245.9-4.29,511.75,16.3,761.62,55,250.77,38.36,483.13,92.44,683.07,147.39,200.63,55.14,368.57,110.49,507.58,157,138.6,46.35,249.05,84.49,326.27,102.27"/><path class="cls-3" d="M-780.13,1320.59c177.6,136.6,296.55,200.8,397,217s183.25-16.82,290.75-74.73c106.83-57.62,240.58-140,427.22-214.23,184.83-74.58,424.86-138.48,698.31-167.48,271.79-29.13,580.81-21.7,874.2,14.93,294.63,36.07,569.42,97.34,802,161.08,233.66,64.12,424.67,129.54,579.73,184.48,154.6,54.8,274.36,100,356.1,122.16"/></g><g class="cls-5"><path class="cls-6" d="M-2189.44-1717.45c109.15,345.87,283.79,595.23,612.17,854.18,165.21,129.51,370,260.94,633.18,406.53,264,146,584.31,304.12,998.48,497.68"/><path class="cls-6" d="M-2174.27-1684.16c118,324.86,305.34,571.69,657.69,837.25C-1339.37-714-1119.79-576.74-837.92-422.75-555.36-268.27-212.56-99.2,228.2,109.58"/><path class="cls-6" d="M-2158.24-1650c126.47,303.41,325.5,546.34,698.87,817.62,187.68,135.85,420,278.57,717.2,440.38C-444.41-229.75-83.78-50.38,375.55,170.82"/><path class="cls-6" d="M-2141.33-1615.19c134.67,281.73,344.1,519.28,735.42,795.08C-1209.34-682-966.22-534.32-656.76-365.43-346.82-196.11,27.77-7.29,499.61,223.9"/><path class="cls-6" d="M-2123.51-1579.71c142.62,260,361,490.64,767.19,769.6,202.79,138.57,455.79,291.66,774.51,466.39C-262.5-168.4,122.52,28.55,602.89,268.21"/><path class="cls-6" d="M-4366.82,61.69c186.59,140.16,288.71,200.72,359.93,209.38,71.17,8.26,110.6-37.66,173.33-120.16,62.33-81.76,151.26-200.84,313-319.14,159.27-118.08,396.74-231,693-292.63,292.87-63.94,648.64-77.29,991.95-45.26,344.92,31,670.21,100.74,940.7,175,272.28,74.92,489.24,152.37,661.64,216.83C-61.43-49.84,67.45,2.92,153.55,30"/><path class="cls-6" d="M-4044.17,498.56C-3852.26,635.81-3765.07,697-3727.46,705c37.9,7.3,23.53-41.41,23.41-140.86.13-98.19,19.18-249.74,133.26-415.64,56.55-82,136.7-166.95,243.49-244.2,106.44-77.36,239.53-147.07,393.64-201.18C-2628.39-407.59-2223.32-452.23-1823-428.37c402.34,22,788.05,101.95,1103,189.1C-402.36-151.09-156.09-59.16,34.92,16c190.49,75.32,327.88,135.83,418,168.12"/></g><g class="cls-7"><path class="cls-6" d="M-2189.44-40.19C-2080.29,305.68-1905.64,555-1577.27,814c165.21,129.5,370,260.93,633.18,406.52,264,146,584.31,304.13,998.48,497.68"/><path class="cls-6" d="M-2174.27-6.91c118,324.86,305.34,571.7,657.69,837.25,177.21,132.93,396.79,270.18,678.66,424.17C-555.36,1409-212.56,1578.06,228.2,1786.83"/><path class="cls-6" d="M-2158.24,27.21c126.47,303.41,325.5,546.35,698.87,817.62,187.68,135.86,420,278.58,717.2,440.39,297.76,162.29,658.4,341.66,1117.71,562.86"/><path class="cls-6" d="M-2141.33,62.07c134.68,281.73,344.1,519.28,735.43,795.07,196.57,138.16,439.69,285.79,749.14,454.69,310,169.32,684.53,358.13,1156.37,589.33"/><path class="cls-6" d="M-2123.51,97.55c142.62,260,361,490.63,767.18,769.59,202.79,138.57,455.8,291.66,774.52,466.4,319.31,175.31,704.32,372.27,1184.7,611.93"/></g><g class="cls-8"><path class="cls-3" d="M1198.82-1785.89c-60.3,85.66-147.15,127-283.52,151.86-134.2,26.73-317.92,37-521.89,103.69-197.73,66.93-412.72,205.83-468.58,492.5C-101.93-897-85.9-720.48-.45-525.87c85,193.65,239.31,405.38,477.63,594.36"/><path class="cls-3" d="M1208.06-1791.44c-57,95.11-137.94,144.37-266.06,176.43-126.08,33.85-299.31,50.49-493.67,121.77-95.13,36.5-192.81,88.49-275.43,168.46C90.6-1245.06,23.37-1137.38-3.73-995.12c-26.83,140.63-12.74,316.44,69.5,510.55C147.58-291.49,297.53-80.11,532.58,108.11"/><path class="cls-3" d="M1216.56-1796.13c-53.53,104-128.39,160.91-247.82,199.7-117.55,40.49-279.67,62.86-464.39,136.89-90.51,37.8-184.16,90.23-264.56,169.61-80.06,79.16-146.87,185.27-176.09,325.5C34.78-825.71,44.14-652.32,119.79-459.48c75.34,191.76,217,403,445.34,592.23"/><path class="cls-3" d="M1224.38-1799.89c-50,112.33-118.55,176.51-228.94,221.57-108.71,46.63-259.23,74.14-434.16,149.41-85.84,38.37-175.54,90.24-254.19,167.77-78.29,77.36-145.53,180.38-178.41,317-32.51,135.29-30.08,304.65,36,495.36,66,189.56,195.63,400.47,413.55,592.28"/><path class="cls-3" d="M1231.62-1802.66c-46.3,120-108.52,191.07-209.63,241.93-99.64,52.3-238.16,84.43-403,159.74-81,38.33-166.7,88.87-243.77,163.54-76.71,74.53-144.82,173.2-182.37,304.79C155.72-802.2,149.61-638.45,203.73-451,257.81-264.7,372.13-54.7,575.28,140.63"/><path class="cls-3" d="M1238.34-1804.37c-42.49,127.08-98.34,204.5-190,260.72-90.42,57.49-216.67,93.79-371,168.22-76,37.85-157.43,86.48-232.82,157.47-75,70.91-144,164.17-186.73,289.43C215.54-804.19,199.92-647.61,240-464.79,280.16-283.17,376-75.31,559.69,123.79"/><path class="cls-3" d="M1244.62-1805c-38.54,133.43-88.07,216.73-170.24,277.85-81.14,62.25-194.91,102.33-338.15,175.26-70.73,37-147.5,83.37-220.84,150.08C442.41-1135.1,372.87-1048,325-930.29c-47.37,117.08-72.84,264.95-48.27,441.39C301.56-313.63,376.43-109.79,535.8,92.4"/><path class="cls-3" d="M1250.54-1804.39c-34.45,139.05-77.77,227.67-150.43,293.27-71.84,66.56-173,110.11-304.56,181.14-65.12,36-136.79,79.85-207.49,141.9C517.72-1126,448.35-1045.71,395.87-936.47c-52,108.8-87,246.54-78.58,414.61C326-354.85,378.13-157.51,508.87,46"/></g><g class="cls-9"><path class="cls-3" d="M2702.38-108.64c-60.3,85.66-147.14,127-283.51,151.86C2284.67,70,2100.94,80.19,1897,146.91c-197.74,66.94-412.73,205.83-468.58,492.51-26.77,140.84-10.74,317.36,74.71,512,85,193.64,239.32,405.38,477.64,594.35"/><path class="cls-3" d="M2711.63-114.19c-57,95.11-138,144.38-266.07,176.44C2319.48,96.1,2146.25,112.74,1951.9,184c-95.13,36.5-192.82,88.5-275.43,168.46-82.31,79.72-149.54,187.41-176.63,329.66-26.84,140.64-12.74,316.45,69.49,510.55,81.81,193.09,231.76,404.46,466.82,592.68"/><path class="cls-3" d="M2720.12-118.88C2666.59-14.87,2591.73,42,2472.31,80.83c-117.55,40.48-279.67,62.85-464.4,136.88-90.51,37.81-184.16,90.23-264.55,169.61-80.07,79.16-146.87,185.27-176.1,325.5-28.91,138.73-19.55,312.12,56.1,505,75.33,191.75,217,403,445.34,592.22"/><path class="cls-3" d="M2728-122.64C2678-10.31,2609.39,53.87,2499,98.93c-108.7,46.63-259.22,74.14-434.16,149.41-85.84,38.37-175.54,90.24-254.18,167.78-78.3,77.36-145.53,180.38-178.42,317-32.51,135.29-30.08,304.65,36.06,495.36,66,189.56,195.62,400.46,413.54,592.28"/><path class="cls-3" d="M2735.18-125.41c-46.3,120-108.52,191.07-209.63,241.94-99.63,52.29-238.16,84.42-403,159.73-81,38.34-166.7,88.88-243.77,163.54C1802.06,514.34,1734,613,1696.41,744.6c-37.12,130.46-43.23,294.21,10.88,481.68,54.09,186.28,168.4,396.28,371.55,591.61"/><path class="cls-3" d="M2741.9-127.12c-42.49,127.08-98.34,204.5-190,260.72-90.42,57.5-216.67,93.79-371,168.23-76,37.85-157.43,86.48-232.81,157.47-75,70.9-144,164.17-186.74,289.42-42.24,124.35-57.87,280.93-17.81,463.75,40.18,181.61,136,389.47,319.71,588.57"/><path class="cls-3" d="M2748.18-127.71C2709.65,5.72,2660.11,89,2578,150.14,2496.81,212.39,2383,252.47,2239.8,325.39c-70.74,37-147.51,83.37-220.85,150.09-73,66.68-142.51,153.75-190.37,271.49-47.37,117.07-72.84,264.94-48.28,441.38,24.83,175.28,99.69,379.12,259.07,581.3"/><path class="cls-3" d="M2754.11-127.13c-34.46,139-77.78,227.66-150.43,293.27-71.85,66.56-173,110.11-304.57,181.13-65.12,36-136.79,79.85-207.48,141.91-70.35,62.07-139.72,142.37-192.19,251.61-52,108.79-87,246.53-78.59,414.6,8.75,167,60.85,364.36,191.59,567.84"/><path class="cls-3" d="M2759.74-125.34c-30.25,143.91-67.5,237.28-130.69,306.94-62.6,70.46-151.16,117.21-270.33,186.17-59.15,34.93-125.18,76.18-192.45,133.4-66.95,57.26-135.14,130.49-191.21,230.46-55.62,99.72-99.07,226.09-106.68,383.7-7.17,156.7,21.49,344.63,120.31,546.44"/><path class="cls-3" d="M2765.17-122.3C2738,25.62,2707.35,123.33,2654,196.55c-52.9,73.91-128.52,123.33-235.53,190.7C2314.23,454.79,2174.18,542,2056.27,720.92c-57.7,89.84-107.85,203.93-130.4,348.65-22,144.14-16.45,318.91,49.19,516.62"/><path class="cls-3" d="M1844.54,107.13c136.3,111,287.4,179.31,440.79,235.08C2439,397.38,2595,440,2742,482.25c147.07,41.65,283.14,81.43,399.24,115.82,116.3,34,212.11,61.81,284.41,71.26"/><path class="cls-3" d="M1700.88,161.12c153.06,124.46,316.57,187.41,489.29,237.06,172.4,48.61,354.91,84.48,530.59,126.43,175.67,40.92,341.26,85.46,477.55,125,137.14,39.19,243.74,71.59,323.46,82.48"/><path class="cls-3" d="M1566.69,243.86C1736,381,1904.84,433.42,2092.6,470.9c186.53,36,394.64,58.7,602.27,97.61,207.2,37.2,408.44,87,567.81,132.66,161.31,45.51,278.08,83.24,366.42,97.12"/><path class="cls-3" d="M1452.08,361c187.71,148.36,348.47,186.86,543.64,205.14,96.89,9,202,12.43,315,18.92,112.6,6.25,233,15.54,352.6,30.74,242.86,29.73,481.61,83.52,668.85,136.71,189.38,52.87,323.91,100,415.59,115.91"/><path class="cls-3" d="M1371.32,517.88C1573.86,676.38,1717.49,698,1909.2,690.1,2004,686.28,2111,674.72,2232,668.3c120.42-6.75,254.83-8.38,391.88.14,278.83,15.95,567.37,74.33,785.85,136.32,222.49,61.89,368.27,117.14,469,138.14"/><path class="cls-3" d="M1339.12,715.73c108.61,82.11,190.54,126.11,267.45,143.71,76.75,17.76,149.07,8.84,235.65-11.06,86.34-19.73,187.61-50.44,310.94-74.63A2345.52,2345.52,0,0,1,2576.38,729c156.89-1.57,323,10.63,481.38,34.81,158.58,23.85,308.5,58.67,436.78,94.07,128.81,35.5,235.59,71,320.69,99.33,85.68,28.64,149.91,50.27,207.54,65"/><path class="cls-3" d="M1373.38,953c112.95,83.14,188.29,126,251.88,137.27,63.57,11.53,115.84-9.22,184.32-46.54,68.27-36.65,154-90.58,272.82-137.55,117.69-47.31,268.44-87.67,441.27-105.1,173.48-18.7,365.22-13.6,551.51,9.14C3261.29,832.46,3442,872.38,3589.33,913c150.27,41.21,271.5,83,365.55,116.46,94.85,33.82,162.87,59.39,226.82,77.8"/><path class="cls-3" d="M1487,1218.45c118.39,88.91,183.17,127.33,228.36,132.8,45.16,5.23,70.18-23.92,110-76.29,39.56-51.89,96-127.46,198.66-202.53,101.08-74.93,251.78-146.56,439.76-185.69,185.85-40.57,411.61-49,629.46-28.71,218.88,19.66,425.3,63.93,597,111.07,172.78,47.54,310.48,96.69,419.89,137.6,109.09,40.89,190.88,74.38,245.54,91.58"/><path class="cls-3" d="M1691.74,1495.7c121.75,87.06,177.06,125.89,200.91,130.91,24,4.61,14.92-26.31,14.86-89.44.09-62.32,12.19-158.5,84.6-263.77,70.34-104.57,207.3-214.38,404.34-282.62,193.73-70.23,450.77-98.55,704.82-83.41,255.31,13.94,500.07,64.69,699.92,120,201.57,56,357.86,114.29,479.09,162,120.9,47.8,208.1,86.21,265.31,106.71"/></g><g class="cls-10"><path class="cls-6" d="M793.77-1785.89c-60.3,85.66-147.14,127-283.51,151.86-134.2,26.73-317.93,37-521.89,103.69-197.73,66.93-412.73,205.83-468.58,492.5C-507-897-490.95-720.48-405.5-525.87-320.55-332.22-166.18-120.49,72.14,68.49"/><path class="cls-6" d="M803-1791.44c-57,95.11-137.94,144.37-266.07,176.43-126.08,33.85-299.31,50.49-493.66,121.77-95.13,36.5-192.82,88.49-275.43,168.46-82.31,79.72-149.54,187.4-176.63,329.66-26.84,140.63-12.74,316.44,69.49,510.55,81.81,193.08,231.76,404.46,466.82,592.68"/><path class="cls-6" d="M811.52-1796.13c-53.54,104-128.39,160.91-247.82,199.7C446.15-1555.94,284-1533.57,99.3-1459.55c-90.5,37.81-184.16,90.24-264.55,169.62-80.07,79.16-146.87,185.27-176.1,325.5-28.91,138.72-19.55,312.11,56.1,504.95,75.34,191.76,217,403,445.34,592.23"/><path class="cls-6" d="M819.34-1799.89c-50,112.33-118.56,176.51-229,221.57-108.7,46.62-259.22,74.14-434.16,149.41-85.83,38.37-175.54,90.24-254.18,167.77-78.3,77.36-145.53,180.38-178.42,317-32.5,135.29-30.08,304.65,36.06,495.36,66,189.56,195.63,400.47,413.55,592.28"/><path class="cls-6" d="M826.57-1802.66c-46.3,120-108.51,191.07-209.62,241.93-99.64,52.3-238.17,84.43-403,159.74-81,38.33-166.71,88.87-243.78,163.54-76.7,74.53-144.81,173.2-182.36,304.79C-249.32-802.2-255.43-638.44-201.32-451c54.09,186.28,168.4,396.27,371.55,591.6"/><path class="cls-6" d="M833.29-1804.37c-42.49,127.08-98.33,204.5-190,260.71-90.42,57.5-216.67,93.8-371,168.23-76,37.85-157.42,86.48-232.81,157.47-75,70.91-144,164.17-186.74,289.43-42.24,124.34-57.87,280.92-17.81,463.74C-124.88-283.17-29-75.31,154.65,123.79"/><path class="cls-6" d="M839.57-1805C801-1671.54,751.5-1588.24,669.34-1527.12c-81.14,62.25-194.91,102.33-338.15,175.26-70.74,37-147.51,83.37-220.85,150.08C37.37-1135.09-32.17-1048-80-930.29c-47.37,117.08-72.84,264.95-48.28,441.39,24.83,175.27,99.69,379.11,259.07,581.3"/><path class="cls-6" d="M845.5-1804.39c-34.46,139.05-77.78,227.67-150.43,293.27C623.22-1444.56,522-1401,390.51-1330c-65.12,36-136.8,79.85-207.49,141.9C112.67-1126,43.3-1045.71-9.17-936.47c-52,108.8-87,246.54-78.59,414.61C-79-354.85-26.91-157.51,103.83,46"/></g><g class="cls-11"><path class="cls-6" d="M2164.51-108.64C2104.21-23,2017.36,18.37,1881,43.22c-134.2,26.73-317.93,37-521.89,103.69-197.73,66.94-412.72,205.83-468.58,492.51-26.77,140.84-10.73,317.36,74.72,512,84.94,193.64,239.31,405.38,477.63,594.35"/><path class="cls-6" d="M2173.75-114.19c-57,95.11-137.94,144.38-266.06,176.44C1781.6,96.1,1608.38,112.74,1414,184c-95.13,36.5-192.82,88.5-275.43,168.46C1056.29,432.19,989.06,539.88,962,682.13c-26.84,140.64-12.74,316.45,69.5,510.55,81.81,193.09,231.75,404.46,466.81,592.68"/><path class="cls-6" d="M2182.25-118.88C2128.72-14.87,2053.86,42,1934.43,80.83c-117.55,40.48-279.67,62.85-464.39,136.88-90.51,37.81-184.16,90.23-264.56,169.61-80.06,79.16-146.87,185.27-176.1,325.5-28.91,138.73-19.55,312.12,56.1,505,75.34,191.75,217,403,445.34,592.22"/><path class="cls-6" d="M2190.07-122.64c-50,112.33-118.55,176.51-228.94,221.57C1852.42,145.56,1701.9,173.07,1527,248.34c-85.84,38.37-175.54,90.24-254.19,167.78-78.29,77.36-145.53,180.38-178.41,317-32.51,135.29-30.09,304.65,36.05,495.36,66,189.56,195.63,400.46,413.55,592.28"/><path class="cls-6" d="M2197.31-125.41C2151-5.37,2088.79,65.66,1987.68,116.53c-99.64,52.29-238.17,84.42-403,159.73-81,38.34-166.71,88.88-243.77,163.54-76.71,74.54-144.82,173.2-182.37,304.8-37.12,130.46-43.23,294.21,10.89,481.68,54.08,186.28,168.4,396.28,371.55,591.61"/><path class="cls-6" d="M2204-127.12C2161.54,0,2105.69,77.38,2014,133.6c-90.42,57.5-216.67,93.79-371,168.23-76,37.85-157.43,86.48-232.82,157.47-75,70.9-144,164.17-186.74,289.42-42.24,124.35-57.86,280.93-17.81,463.75,40.19,181.61,136.06,389.47,319.72,588.57"/><path class="cls-6" d="M2210.31-127.71C2171.77,5.72,2122.24,89,2040.07,150.14c-81.14,62.25-194.91,102.33-338.15,175.25-70.73,37-147.5,83.37-220.84,150.09-73,66.68-142.52,153.75-190.38,271.49-47.37,117.07-72.84,264.94-48.27,441.38,24.82,175.28,99.69,379.12,259.06,581.3"/><path class="cls-6" d="M2216.23-127.13c-34.45,139-77.77,227.66-150.43,293.27-71.84,66.56-173,110.11-304.56,181.13-65.12,36-136.79,79.85-207.49,141.91-70.34,62.07-139.71,142.37-192.19,251.61-52,108.79-87,246.53-78.58,414.6,8.74,167,60.84,364.36,191.58,567.84"/><path class="cls-6" d="M2221.87-125.34c-30.26,143.91-67.5,237.28-130.7,306.94-62.6,70.46-151.15,117.21-270.32,186.17C1761.7,402.7,1695.67,444,1628.4,501.17c-67,57.26-135.14,130.49-191.22,230.46-55.62,99.72-99.06,226.09-106.67,383.7C1323.34,1272,1352,1460,1450.82,1661.77"/><path class="cls-6" d="M2227.29-122.3c-27.21,147.92-57.81,245.63-111.15,318.85-52.89,73.91-128.52,123.33-235.53,190.7C1776.35,454.79,1636.3,542,1518.39,720.92c-57.7,89.84-107.84,203.93-130.39,348.65-22,144.14-16.46,318.91,49.18,516.62"/><path class="cls-6" d="M2232.58-118c-22.34,151.24-47.49,252.43-91.83,329-44.09,77-107.37,129.38-200.37,194.74C1849.2,471.49,1724.15,550.8,1605.8,710,1547.69,790.1,1493,891.5,1457.89,1022.1c-34.59,130.2-49.52,289.61-17.13,476.52"/><path class="cls-6" d="M2237.78-112.36C2220.2,41.32,2200.43,145.45,2165,224.89c-35.39,79.79-86.48,134.89-165,198.59-77.45,64.25-185.94,136.76-300.47,276.76-56.4,70.49-113,159.06-157.45,274.3-44.06,115-76,256.69-73.85,428.11"/><path class="cls-6" d="M2243-105.45c-26.29,311.85-56.82,422.55-183.85,546.16-64.05,64.2-152.86,129-260.09,252-103.67,123.37-225.76,305-274.32,610.49"/><path class="cls-6" d="M2248.19-97.24c-18,312.56-34.23,431.88-130.5,554.75-49.06,62.78-119.42,124.68-213.52,230.86-91.68,107-207.1,258.22-290.5,517.83"/><path class="cls-6" d="M2253.51-87.74c-4,155.62-8.92,265.26-18.66,351.49-10.16,86.21-25.09,149-58.93,210.27-33.47,61.75-85.84,122-162.55,213.9-75.56,92.87-175.46,217.4-277.46,429.91"/><path class="cls-6" d="M2259-77c1.53,155.62,1.65,265.48-.61,353-2.68,87.38-7.74,152.45-26.12,214.2-18.37,62-50,120.72-105.61,201.38-55.13,81.36-134.16,184.68-237.13,352.21"/><path class="cls-6" d="M1914.92,15.24c123.28,84.85,233.47,155,334.14,214.83,101.11,60.1,192.79,109.86,289.15,160.89"/><path class="cls-6" d="M1819.31,28.84c151.21,113.75,297.21,196.84,425.92,262.26,129.84,65.47,241.3,112.08,347.83,152.37"/><path class="cls-6" d="M1708.94,40c87.47,69.6,182.62,128.73,273,178.75,90.92,50.12,177.17,91.15,257.71,126.65,159.22,69.09,302,121.42,414.92,151.68"/><path class="cls-6" d="M1584.5,52.82c103,83.48,217.84,149.23,328.56,204.09,111.28,54.85,218.48,98.79,318.07,137.3,197.47,74.14,369.73,133.47,492.44,158"/><path class="cls-6" d="M1449.3,73.36C1568.76,170.61,1702.87,239.7,1835,296.81c132.61,56.86,263.24,101.67,384.76,142.45,121.72,40.46,233.4,76,331.94,106.36,98.4,29.93,183.49,54.27,249.52,63.93"/><path class="cls-6" d="M1306.67,107.13c136.29,111,287.4,179.31,440.78,235.08,153.62,55.17,309.72,97.79,456.63,140,147.07,41.65,283.14,81.43,399.23,115.82,116.3,34,212.12,61.81,284.42,71.26"/><path class="cls-6" d="M1163,161.12c153,124.46,316.57,187.41,489.29,237.06,172.4,48.61,354.91,84.48,530.59,126.43,175.66,40.92,341.25,85.46,477.55,125,137.14,39.19,243.74,71.59,323.45,82.48"/><path class="cls-6" d="M1028.81,243.86C1198.09,381,1367,433.43,1554.72,470.9c186.54,36,394.65,58.7,602.27,97.61,207.2,37.2,408.45,87,567.81,132.66,161.31,45.51,278.09,83.24,366.42,97.12"/><path class="cls-6" d="M914.2,361c187.71,148.36,348.48,186.86,543.64,205.14,96.9,9,202,12.43,315,18.92,112.6,6.25,233,15.54,352.61,30.74,242.86,29.73,481.6,83.52,668.85,136.71,189.38,52.87,323.91,100,415.58,115.91"/><path class="cls-6" d="M833.44,517.88C1036,676.38,1179.62,698,1371.32,690.1c94.83-3.82,201.82-15.38,322.79-21.8,120.43-6.75,254.84-8.38,391.89.14,278.83,15.95,567.36,74.33,785.84,136.32,222.5,61.89,368.27,117.14,469,138.14"/><path class="cls-6" d="M801.25,715.73c108.6,82.11,190.54,126.11,267.45,143.71,76.75,17.76,149.06,8.84,235.64-11.06,86.35-19.73,187.61-50.44,310.94-74.63A2345.64,2345.64,0,0,1,2038.51,729c156.88-1.57,323,10.63,481.37,34.81,158.58,23.85,308.51,58.67,436.79,94.07,128.8,35.5,235.58,71,320.69,99.33,85.68,28.64,149.9,50.27,207.54,65"/><path class="cls-6" d="M835.51,953c113,83.14,188.28,126,251.87,137.27,63.57,11.53,115.85-9.22,184.32-46.54,68.27-36.65,154-90.58,272.82-137.55,117.7-47.31,268.45-87.67,441.27-105.1,173.48-18.7,365.23-13.6,551.51,9.14,186.12,22.29,366.77,62.21,514.15,102.8C3201.72,954.18,3323,996,3417,1029.43c94.86,33.82,162.87,59.39,226.82,77.8"/><path class="cls-6" d="M949.1,1218.45c118.39,88.91,183.18,127.33,228.37,132.8,45.16,5.23,70.18-23.92,110-76.29,39.56-51.89,96-127.46,198.65-202.53,101.09-74.93,251.79-146.56,439.76-185.69,185.86-40.57,411.62-49,629.47-28.71,218.88,19.66,425.3,63.93,597,111.07,172.79,47.54,310.48,96.69,419.89,137.6,109.09,40.89,190.89,74.38,245.55,91.58"/><path class="cls-6" d="M1153.87,1495.7c121.75,87.06,177.06,125.89,200.91,130.91,24,4.61,14.92-26.31,14.85-89.44.09-62.32,12.2-158.5,84.61-263.77,70.33-104.57,207.3-214.38,404.34-282.62,193.73-70.23,450.76-98.55,704.81-83.41,255.32,13.94,500.08,64.69,699.93,120,201.57,56,357.86,114.3,479.09,162,120.9,47.8,208.1,86.2,265.3,106.71"/></g></svg>