<svg id="POTITE_GRILLE" data-name="POTITE GRILLE" xmlns="http://www.w3.org/2000/svg" xmlns:xlink="http://www.w3.org/1999/xlink" viewBox="0 0 1920 1080"><defs><style>.cls-1,.cls-3,.cls-5{fill:none;}.cls-2{clip-path:url(#clip-path);}.cls-3{stroke:#fff;}.cls-3,.cls-5{stroke-linecap:round;stroke-linejoin:round;stroke-width:0.25px;}.cls-4{clip-path:url(#clip-path-2);}.cls-5{stroke:#000;}.cls-6{clip-path:url(#clip-path-3);}</style><clipPath id="clip-path"><rect class="cls-1" x="2358.98" y="-1677.25" width="1920" height="1080"/></clipPath><clipPath id="clip-path-2"><rect class="cls-1" y="-1677.25" width="1920" height="1080"/></clipPath><clipPath id="clip-path-3"><rect class="cls-1" width="1920" height="1080"/></clipPath></defs><g class="cls-2"><path class="cls-3" d="M3673.17-2029.3c-95,135-231.86,200.13-446.74,239.28-211.47,42.11-501,58.24-822.4,163.35-157.26,54-317.94,133.38-452.82,257.94-134.43,124.15-243.07,293.5-285.63,518.06-42.19,221.93-16.94,500.07,117.7,806.73,133.86,305.13,377.11,638.77,752.65,936.55"/><path class="cls-3" d="M3687.73-2038c-89.76,149.87-217.35,227.5-419.24,278-198.68,53.33-471.66,79.54-777.93,191.83-149.91,57.51-303.85,139.43-434,265.42-129.71,125.62-235.66,295.3-278.37,519.45-42.29,221.6-20.08,498.64,109.5,804.5,128.92,304.25,365.21,637.33,735.62,933.91"/><path class="cls-3" d="M3701.12-2045.45c-84.35,163.9-202.3,253.57-390.49,314.69-185.23,63.78-440.71,99-731.8,215.65-142.63,59.57-290.22,142.17-416.91,267.24C2035.74-1123.13,1930.46-955.93,1884.4-735c-45.57,218.6-30.82,491.82,88.4,795.69,118.72,302.16,341.9,635,701.79,933.21"/><path class="cls-3" d="M1757.83,61.69c186.59,140.16,288.71,200.73,359.93,209.38,71.17,8.26,110.6-37.66,173.33-120.16,62.33-81.76,151.26-200.84,313-319.14,159.26-118.08,396.74-231,693-292.63,292.87-63.94,648.64-77.29,991.95-45.26,344.92,31,670.21,100.74,940.7,175,272.28,74.92,489.24,152.37,661.64,216.83C6063.22-49.84,6192.1,2.92,6278.2,30"/></g><g class="cls-4"><path class="cls-5" d="M1314.19-2029.3c-95,135-231.85,200.13-446.74,239.28-211.46,42.12-501,58.24-822.4,163.35-157.25,54-317.93,133.38-452.82,257.94-134.43,124.15-243.06,293.5-285.63,518.06C-735.59-628.74-710.34-350.6-575.69-43.94-441.84,261.19-198.59,594.83,177,892.61"/><path class="cls-5" d="M1328.76-2038c-89.76,149.87-217.35,227.5-419.25,278-198.67,53.33-471.65,79.54-777.92,191.83-149.92,57.51-303.86,139.43-434,265.43-129.7,125.61-235.65,295.29-278.36,519.44-42.3,221.6-20.09,498.64,109.5,804.5,128.91,304.25,365.2,637.33,735.61,933.91"/><path class="cls-5" d="M1342.15-2045.45c-84.35,163.9-202.3,253.57-390.5,314.69-185.23,63.78-440.7,99-731.8,215.65-142.63,59.57-290.22,142.17-416.91,267.24C-323.23-1123.13-428.51-955.93-474.58-735c-45.56,218.6-30.81,491.82,88.4,795.69,118.72,302.16,341.9,635,701.8,933.21"/><path class="cls-5" d="M1354.47-2051.38c-78.75,177-186.81,278.14-360.76,349.14-171.29,73.47-408.48,116.81-684.16,235.4C174.28-1406.38,32.92-1324.65-91-1202.48-214.4-1080.59-320.36-918.25-372.18-703c-51.23,213.19-47.4,480.06,56.82,780.58,104,298.7,308.3,631.05,651.72,933.29"/><path class="cls-5" d="M1365.87-2055.75c-73,189.15-171,301.09-330.32,381.23-157,82.41-375.3,133-635.08,251.68-127.7,60.4-262.7,140-384.15,257.69C-104.57-1047.71-211.9-892.24-271.07-684.87c-58.49,205.57-68.12,463.62,17.16,759,85.25,293.54,265.4,624.45,585.56,932.24"/><path class="cls-5" d="M1376.45-2058.46c-67,200.26-155,322.26-299.41,410.84-142.49,90.6-341.43,147.78-584.61,265.07-119.81,59.64-248.09,136.26-366.89,248.12C7.32-1022.7-101.42-875.74-168.74-678.36c-66.56,195.94-91.18,442.68-28,730.77C-133.45,338.6,17.64,666.15,307.1,979.88"/><path class="cls-5" d="M1386.35-2059.39c-60.72,210.26-138.78,341.51-268.25,437.83C990.24-1523.48,811-1460.33,585.23-1345.42c-111.47,58.36-232.45,131.36-348,236.49-115,105.07-224.58,242.27-300,427.81-74.65,184.48-114.78,417.5-76.06,695.54,39.13,276.2,157.13,597.42,408.32,916"/><path class="cls-5" d="M1395.68-2058.49c-54.29,219.12-122.55,358.76-237,462.14C1045.42-1491.47,886-1422.86,678.69-1310.94c-102.62,56.77-215.56,125.81-327,223.6C240.86-989.54,131.55-863,48.85-690.85-33.08-519.42-88.19-302.36-75-37.51-61.17,225.68,21,536.66,227,857.3"/><path class="cls-5" d="M1404.57-2055.67c-47.68,226.77-106.37,373.91-206,483.68-98.65,111-238.19,184.69-426,293.35-93.21,55-197.27,120-303.28,210.2C363.83-978.21,256.37-862.81,168-705.28,80.36-548.15,11.9-349-.08-100.63c-11.29,246.94,33.9,543.08,189.66,861.11"/><path class="cls-5" d="M1413.11-2050.88C1372.2-1817.69,1322.84-1664,1238-1548.46c-84.23,116.53-204,194.91-371.22,300.36-83.22,53.32-177.48,114.39-276.65,196.95-98.73,82.68-202.37,186.85-294.1,329-91.1,142-170.26,321.78-205.57,550.45-34.57,227.54-25.28,504,77.62,813.08"/><path class="cls-5" d="M1421.43-2044.07c-35.2,238.32-74.84,397.78-144.7,518.35-69.48,121.38-169.2,203.87-315.75,306.86-73,50.92-156.67,109.27-247.39,184.68-90.36,75.7-187.77,168.46-279.89,294.83-91.55,126.2-177.81,286-233.06,491.81-54.51,205.18-78,456.39-26.95,750.94"/><path class="cls-5" d="M1429.63-2035.23c-27.7,242.18-58.86,406.26-114.75,531.44-55.78,125.73-136.28,212.56-260.05,312.93-122.06,101.24-293,215.49-473.51,436.11C492.43-643.67,403.26-504.09,333.19-322.49,263.76-141.24,213.44,82,216.84,352.17"/><path class="cls-5" d="M1437.79-2024.33c-20.4,244.65-43.21,412.51-85.38,541.72-42.28,129.55-103.93,220.45-204.35,318.9-51.58,50.48-110.34,101.41-179.21,163.79C900.33-937.51,821.7-863.65,738.43-766.58,655.52-669.49,568-549.19,489.68-393.17,411.74-237.11,343-45.33,305.9,195.47"/><path class="cls-5" d="M1446-2011.4c-28.3,492.54-53.94,680.55-205.65,874.17-77.31,98.93-188.19,196.46-336.49,363.78C759.4-604.89,577.5-366.55,446.09,42.58"/><path class="cls-5" d="M1576.24-1717.45c109.14,345.87,283.79,595.23,612.17,854.18,165.2,129.51,370,260.94,633.18,406.53,264,146,584.31,304.12,998.48,497.68"/><path class="cls-5" d="M1591.41-1684.16c118,324.86,305.34,571.69,657.69,837.25C2426.31-714,2645.88-576.74,2927.75-422.75,3210.31-268.27,3553.11-99.2,3993.87,109.58"/><path class="cls-5" d="M1607.43-1650c126.47,303.41,325.51,546.34,698.87,817.62C2494-696.57,2726.35-553.85,3023.51-392,3321.26-229.75,3681.9-50.38,4141.22,170.82"/><path class="cls-5" d="M1624.35-1615.19c134.67,281.73,344.1,519.28,735.42,795.08C2556.34-682,2799.46-534.32,3108.92-365.43,3418.86-196.11,3793.45-7.29,4265.29,223.9"/><path class="cls-5" d="M1642.17-1579.71c142.61,260,361,490.64,767.18,769.6,202.79,138.57,455.8,291.66,774.51,466.39C3503.17-168.4,3888.19,28.55,4368.57,268.21"/><path class="cls-5" d="M-601.15,61.69c186.6,140.16,288.71,200.72,359.93,209.38,71.18,8.26,110.6-37.66,173.34-120.16,62.33-81.76,151.25-200.84,313-319.14,159.27-118.08,396.74-231,693-292.63,292.88-63.94,648.65-77.29,992-45.26,344.91,31,670.2,100.74,940.7,175C3143-256.17,3360-178.72,3532.36-114.26,3704.25-49.84,3833.12,2.92,3919.23,30"/><path class="cls-5" d="M-278.5,498.56C-86.58,635.81.61,697,38.21,705c37.9,7.3,23.53-41.41,23.42-140.86.13-98.19,19.18-249.74,133.26-415.64,56.54-82,136.69-166.95,243.49-244.2C544.82-173.09,677.9-242.8,832-296.91c305.28-110.68,710.34-155.32,1110.69-131.46,402.35,22,788.06,101.95,1103,189.1C3363.32-151.09,3609.58-59.16,3800.6,16c190.49,75.32,327.88,135.83,418,168.12"/></g><g class="cls-6"><path class="cls-5" d="M1314.19-352c-95,135-231.85,200.12-446.74,239.28C656-70.65,366.47-54.53,45.06,50.58c-157.26,54-317.94,133.39-452.83,258C-542.2,432.68-650.83,602-693.39,826.59c-42.2,221.92-17,500.07,117.7,806.72,133.85,305.13,377.1,638.78,752.65,936.55"/><path class="cls-5" d="M1328.76-360.79c-89.76,149.86-217.36,227.5-419.25,278C710.84-29.45,437.86-3.25,131.59,109.05c-149.92,57.5-303.86,139.42-434,265.42-129.7,125.61-235.66,295.29-278.36,519.44-42.3,221.6-20.09,498.64,109.5,804.5,128.91,304.25,365.2,637.33,735.61,933.91"/><path class="cls-5" d="M1342.15-368.19c-84.36,163.9-202.31,253.56-390.5,314.68-185.23,63.79-440.7,99-731.8,215.66C77.22,221.71-70.37,304.32-197.06,429.39c-126.18,124.73-231.46,291.93-277.52,512.9-45.57,218.59-30.81,491.82,88.4,795.69,118.72,302.16,341.9,635,701.8,933.2"/><path class="cls-5" d="M1354.47-374.13C1275.71-197.12,1167.66-96,993.71-25,822.41,48.48,585.22,91.82,309.55,210.41,174.28,270.87,32.93,352.6-91,474.77-214.4,596.67-320.35,759-372.18,974.3c-51.23,213.18-47.4,480.06,56.82,780.58,104,298.7,308.3,631,651.72,933.28"/><path class="cls-5" d="M1365.87-378.5c-73,189.15-171,301.09-330.32,381.24-157,82.4-375.3,133-635.07,251.67-127.71,60.41-262.71,140-384.16,257.69C-104.56,629.55-211.9,785-271.07,992.38c-58.5,205.58-68.12,463.62,17.16,759,85.25,293.53,265.4,624.45,585.56,932.23"/><path class="cls-5" d="M1376.45-381.2C1309.51-180.94,1221.51-58.94,1077,29.64,934.56,120.24,735.61,177.42,492.43,294.7,372.62,354.34,244.34,431,125.54,542.82c-118.22,111.73-227,258.7-294.28,456.07-66.56,195.95-91.18,442.68-28,730.77,63.34,286.2,214.43,613.74,503.88,927.47"/><path class="cls-5" d="M1386.35-382.14c-60.72,210.26-138.78,341.52-268.26,437.83C990.24,153.78,811,216.92,585.23,331.83c-111.48,58.36-232.46,131.37-348,236.49-115,105.08-224.58,242.27-300,427.81-74.64,184.49-114.78,417.51-76.05,695.54,39.13,276.21,157.13,597.42,408.32,916"/><path class="cls-5" d="M1395.68-381.23c-54.29,219.11-122.55,358.76-237,462.13C1045.42,185.79,886,254.4,678.7,366.31c-102.63,56.77-215.57,125.82-327,223.61C240.86,687.72,131.55,814.26,48.85,986.4c-81.93,171.44-137,388.49-123.82,653.35,13.8,263.18,95.92,574.16,302,894.81"/><path class="cls-5" d="M1404.57-378.41c-47.68,226.77-106.37,373.9-206,483.68-98.64,111-238.19,184.68-426,293.34-93.21,55-197.27,120-303.28,210.2C363.83,699.05,256.37,814.44,168,972,80.36,1129.11,11.9,1328.26-.08,1576.63c-11.29,246.93,33.9,543.08,189.66,861.1"/><path class="cls-5" d="M1413.11-373.62C1372.2-140.44,1322.84,13.26,1238,128.8c-84.23,116.53-204,194.9-371.22,300.35-83.22,53.32-177.48,114.4-276.66,197C491.39,708.79,387.75,813,296,955.1c-91.11,142-170.27,321.79-205.58,550.46-34.57,227.54-25.28,504,77.62,813.07"/><path class="cls-5" d="M1421.43-366.81c-35.2,238.32-74.83,397.77-144.7,518.35C1207.25,272.91,1107.53,355.4,961,458.39c-73,50.92-156.66,109.27-247.38,184.69-90.36,75.7-187.77,168.46-279.89,294.83-91.55,126.2-177.81,286-233.06,491.8-54.51,205.19-78,456.39-26.95,750.94"/><path class="cls-5" d="M1429.63-358c-27.7,242.17-58.86,406.26-114.75,531.44C1259.1,299.2,1178.59,386,1054.83,486.39c-122.06,101.25-293,215.5-473.51,436.11-88.89,111.09-178.06,250.66-248.13,432.27C263.76,1536,213.44,1759.28,216.84,2029.42"/><path class="cls-5" d="M1437.79-347.08c-20.39,244.66-43.2,412.52-85.38,541.73-42.28,129.55-103.93,220.45-204.35,318.89C1096.48,564,1037.72,615,968.85,677.34,900.33,739.75,821.7,813.61,738.43,910.67c-82.91,97.1-170.45,217.39-248.75,373.42C411.74,1440.14,343,1631.92,305.9,1872.72"/><path class="cls-5" d="M1446-334.14c-28.3,492.54-54,680.55-205.66,874.17C1163.06,639,1052.17,736.48,903.88,903.8c-144.48,168.56-326.38,406.91-457.79,816"/><path class="cls-5" d="M1454.41-319.18c-6.41,245.58-13,418.45-28.7,554.09C1409.59,370.56,1384.29,469,1331.47,566c-53.2,97.76-134,192.24-254.94,337.09C957.7,1049.32,798.62,1245.93,638.7,1580.56"/><path class="cls-5" d="M1463-302.24c.28,244.11,1.62,418.24-1.46,556.31-3.54,138-11.5,239.91-40.5,337.41-28.92,97.7-78.92,190.52-167,317.57-87.23,128.24-212.48,290.7-373.36,554.91"/><path class="cls-5" d="M1472-283.37c6.78,241.43,15.84,416,25,556,8.65,139.84,17.39,245.1,11.93,343.92-4.79,98.67-23.9,191.16-74.58,305.36C1383.43,1036.84,1301,1173.47,1165.22,1377"/><path class="cls-5" d="M1481.24-262.63C1494.35-25,1511,149.23,1531.89,290.69c20.42,141.24,45.19,249.69,62.79,350.55,18.83,100.54,30.34,194,19.92,300.16-11.2,106.4-44.32,225.51-132.77,382.44"/><path class="cls-5" d="M1491-240.09c19.25,232.67,43.2,405.86,75.46,548.31,31.76,142.21,71.84,253.69,111.81,357.25,41.69,103.14,83.06,198.78,114.27,301.37,30.18,102.41,50.19,211.76,25.65,338.15"/><path class="cls-5" d="M1501.23-215.85c25.22,226.75,56.32,398.14,99.43,541.14,42.65,142.75,97.3,257.1,158.76,363.89,63.54,106.3,133.65,205.27,206.33,308.11,71.71,102.44,146,208.75,195.42,320.57"/><path class="cls-5" d="M1512-190c31,219.89,69,388.81,122.52,531.92,53,142.86,121.52,259.91,203.44,370.36,84.2,109.86,181.57,213.14,294.24,319.34,111.93,105.78,239.16,214.48,366.11,325.58"/><path class="cls-5" d="M1523.46-162.62c36.59,212.2,81.39,378,144.74,520.79,63,142.56,144.47,262.12,245.7,376.51,103.51,113.69,226.4,222.08,376.47,334,149.67,111.63,326.52,226.76,528.7,347.64"/><path class="cls-5" d="M1535.55-133.84c41.21,204.11,93.52,365.68,166.14,507.79,72.59,141.82,165.25,264,285.49,382.21,120.34,118,268,231.7,452,351,184.28,119.22,404.13,243.44,676.15,380.8"/><path class="cls-5" d="M1548.35-103.77c46.6,195.16,104.88,352.2,186.42,493.21,81.47,140.69,185.79,265,322.55,387.24,136.94,122.07,305.83,241.68,520,369.29,214.79,127.8,473.75,262.62,804.57,419.54"/><path class="cls-5" d="M1561.9-72.52c99.94,366.23,261,616.82,562.53,868.54,151.68,125.74,339.52,251.17,580.39,388,241.57,137.15,534.18,283.85,911.95,459.54"/><path class="cls-5" d="M1576.24-40.19C1685.38,305.68,1860,555,2188.41,814c165.2,129.5,370,260.93,633.18,406.52,263.95,146,584.31,304.13,998.48,497.68"/><path class="cls-5" d="M1591.41-6.91c118,324.86,305.34,571.7,657.69,837.25,177.21,132.93,396.78,270.18,678.65,424.17,282.56,154.48,625.36,323.55,1066.12,532.32"/><path class="cls-5" d="M1607.43,27.21c126.47,303.41,325.51,546.35,698.88,817.62,187.67,135.86,420,278.58,717.2,440.39,297.76,162.29,658.39,341.66,1117.71,562.86"/><path class="cls-5" d="M1624.35,62.07C1759,343.8,1968.45,581.35,2359.77,857.14c196.57,138.16,439.69,285.79,749.15,454.69,309.94,169.32,684.53,358.13,1156.37,589.33"/><path class="cls-5" d="M1642.17,97.55c142.61,260,361,490.63,767.18,769.59,202.79,138.57,455.8,291.66,774.51,466.4,319.31,175.31,704.33,372.27,1184.71,611.93"/><path class="cls-5" d="M1245.41-288.58c99.14-16.77,150,8,211.85,93.18,60.8,82.83,132.61,227,241.86,386.94"/><path class="cls-5" d="M1157-229.62c124.32,36.61,209,92.83,298,177.38,88.31,83.73,181.41,196.49,304.08,325.09"/><path class="cls-5" d="M1049.62-186.69c311.47,174,502.53,337.06,777.15,540.5"/><path class="cls-5" d="M920.92-156.84c194.24,133.67,367.85,244.27,526.46,338.47,159.31,94.69,303.78,173.11,455.6,253.52"/><path class="cls-5" d="M770.27-135.43C885.46-47.7,1005.86,31.34,1119.33,99.82c114,68.72,221.15,126.94,322.32,178.14A5504.72,5504.72,0,0,0,1989.4,517.89"/><path class="cls-5" d="M596.34-117.85C734.16-8.19,884.07,85,1026.56,163.79c143.26,79,279.16,143.62,406.07,199.56,250.89,108.86,475.78,191.32,653.78,239"/><path class="cls-5" d="M400.25-97.66c162.3,131.54,343.24,235.15,517.69,321.6,175.36,86.42,344.24,155.64,500.93,216,157,60.12,301,110.74,432.17,153.85,130.75,42.62,248.53,77.59,344,95.49"/><path class="cls-5" d="M187.2-65.31C375.42,87.94,586.73,196.81,794.89,286.8c209,89.59,414.8,160.2,606.29,224.46C1593,575,1769,631.1,1924.21,678.85c155.06,47.15,289.13,85.51,393.17,100.72"/><path class="cls-5" d="M-37.56-12.1C177.19,162.73,415.28,270.46,657,358.34,899,445.27,1145,512.43,1376.5,579c231.73,65.63,446.16,128.31,629.09,182.5,183.26,53.55,334.22,97.39,448.14,112.28"/><path class="cls-5" d="M-263.95,73C-22.8,269.09,234.85,368.28,507,446.52c271.65,76.61,559.24,133.13,836.08,199.23,276.8,64.47,537.74,134.66,752.5,196.94,216.1,61.74,384.07,112.8,509.66,129.94"/><path class="cls-5" d="M-475.44,203.3c270.24,215.22,532.21,299,827.82,357.89,147.33,29.07,302.28,51.15,462.94,75,160.33,23.6,326.38,49,488.39,78.92C1632,774.24,1943.2,851.43,2195.65,923.58c253.92,71.44,446.73,134,578.73,153.4"/><path class="cls-5" d="M-656.06,387.84c295.79,233.82,549.11,294.51,856.64,323.32C353.26,725.3,518.92,730.75,696.89,741c177.43,9.86,367.18,24.49,555.63,48.43,382.7,46.85,758.91,131.61,1054,215.44,298.42,83.3,510.39,157.47,654.83,182.61"/><path class="cls-5" d="M-783.34,635.06c161,123.9,296.18,195.6,430.05,234.08C-219.71,907.72-86.58,913,64.12,906.6c150.51-6.52,318.86-24.32,508.8-34.37,189.18-10.5,400-13.25,617.6,0a5701.9,5701.9,0,0,1,654.86,80.15C2057.2,990.7,2256,1039.13,2429,1087.15c173.47,48.08,320.83,95.21,441.58,133.18,121.26,38.16,216.14,67.21,297.24,84.52"/><path class="cls-5" d="M-834.1,946.81C-495,1212.28-313.7,1216.88-40.76,1155.36,94.12,1125,252.87,1077.2,447.05,1039.23c193-38.49,421.48-67.13,669.16-71,245.89-4.29,511.74,16.3,761.62,55,250.76,38.35,483.12,92.43,683.06,147.38,200.63,55.14,368.57,110.49,507.58,157,138.61,46.36,249.06,84.49,326.27,102.27"/><path class="cls-5" d="M-780.13,1320.59c177.6,136.6,296.55,200.8,397,217s183.25-16.82,290.75-74.73c106.84-57.62,240.58-140,427.22-214.23,184.84-74.58,424.86-138.48,698.31-167.48,271.79-29.13,580.8-21.7,874.2,14.93,294.63,36.07,569.42,97.34,802,161.08C2943,1321.27,3134,1386.7,3289.08,1441.63c154.6,54.8,274.36,100,356.09,122.16"/></g></svg>